# xmcd
#
# Track frame offsets:
#	150
#	16482
#	36220
#	52977
#	66908
#	82035
#	99927
#	118276
#	134808
#	151717
#	172602
#	191620
#
# Disc length: 2699 seconds
#
# Revision: 1
# Processed by: cddbd v1.4PL0 Copyright (c) Steve Scherf et al.
# Submitted via: EasyCDDAExtractor 5.0.4.1
#
DISCID=9a0a890c
DTITLE=Saung Oo Hlaing - Kyun Dawt Tha Chin
DYEAR=2002
DGENRE=Blues
TTITLE0=A Mae Khan
TTITLE1=Nge Ain Mat
TTITLE2=Bae Thu A Nar Mhar Lae
TTITLE3=October 30
TTITLE4=A Chit Oo Thu
TTITLE5=A Phyu Yaung Yar Za Win
TTITLE6=Chit Chin Phwe
TTITLE7=Nout Sone KaByar
TTITLE8=Phyat Lan Myar
TTITLE9=Kyae Kwe Than Zin
TTITLE10=Su Taung Tain Lae
TTITLE11=Kyae Sin Khuu Thu
EXTD=
EXTT0=
EXTT1=
EXTT2=
EXTT3=
EXTT4=
EXTT5=
EXTT6=
EXTT7=
EXTT8=
EXTT9=
EXTT10=
EXTT11=
PLAYORDER=
